<svg width="185" height="60" viewBox="0 0 185 60" fill="none" xmlns="http://www.w3.org/2000/svg">
<path fill-rule="evenodd" clip-rule="evenodd" d="M72.8242 6.73349V47.218H80.806V32.47H90.6383C98.5607 32.47 104.46 26.9762 104.46 19.5155C104.46 12.1118 98.7925 6.73349 90.9271 6.73349H72.8242ZM90.0597 25.6462H80.806V13.8479H90.0597C93.8768 13.8479 96.5372 16.2765 96.5372 19.7468C96.5372 23.2171 93.8768 25.6462 90.0597 25.6462ZM115.564 4.42072L108.219 6.73349V47.218H115.564V4.42072ZM133.434 47.6231C137.02 47.6231 140.259 46.2927 142.688 44.037V47.218H150.033V18.3593H142.688V21.539C140.374 19.2262 137.193 17.8962 133.724 17.8962C126.206 17.8962 119.381 24.1419 119.381 32.7592C119.381 41.3761 126.089 47.6231 133.434 47.6231ZM134.707 41.0298C130.254 41.0298 126.667 37.617 126.667 32.7592C126.667 27.901 130.254 24.4887 134.707 24.4887C139.218 24.4887 142.745 27.901 142.745 32.7592C142.745 37.617 139.218 41.0298 134.707 41.0298ZM184.271 18.3593H176.579L168.366 35.3622L159.98 18.3593H151.768L164.145 43.5739L155.874 60H163.856L184.271 18.3593ZM42.1536 35.218L39.7955 31.4535H32.9106L35.2724 27.6827H37.4477L34.8182 23.4848L27.4842 35.218H7.91795L12.6293 27.6827H9.17024L11.5216 23.912H26.6461L24.2929 27.6827H17.0797L14.7215 31.4535H25.3924L34.8182 16.3682L46.599 35.218H42.1536ZM16.2343 16.3682H31.7486L29.3905 20.1407H13.878L16.2343 16.3682ZM26.9865 0C12.0831 0 0 12.084 0 26.9879C0 41.8958 12.0831 53.9744 26.9865 53.9744C41.89 53.9744 53.9744 41.8958 53.9744 26.9879C53.9744 12.084 41.89 0 26.9865 0Z" fill="#FF4747"/>
</svg>
