<svg width="200" height="73" viewBox="0 0 200 73" fill="none" xmlns="http://www.w3.org/2000/svg">
<g clip-path="url(#clip0_3174_11513)">
<path d="M103.825 55C104.535 55.26 105.02 55.43 105.505 55.615C111.09 57.775 116.875 58.65 122.815 57.89C128.29 57.19 131.465 53.05 131.02 47.36C130.34 47.655 129.705 47.93 129.065 48.2C117.56 53.03 104.16 48.37 98.12 37.46C97.675 36.655 97.57 35.98 97.915 35.06C100.295 28.725 100.245 22.37 97.955 16C97.725 15.355 97.795 14.385 98.12 13.78C104.05 2.80503 117.44 -1.89997 128.97 2.88503C129.625 3.15503 130.27 3.45003 131.185 3.84503C131.185 2.85003 131.225 2.02003 131.175 1.19003C131.12 0.340034 131.4 3.44723e-05 132.3 0.00503447C136.46 0.0400345 140.615 0.0500345 144.775 0.00503447C145.815 -0.00496553 145.925 0.480035 145.92 1.32003C145.895 6.05003 145.91 10.785 145.91 15.515V17.07C148.68 10.88 152.87 6.11003 159.045 3.28503C165.255 0.445035 171.63 0.240035 178.02 2.63503C188.115 6.42503 194.77 16.845 193.78 27.175C192.665 38.835 184.725 47.725 173.675 49.71C162.575 51.705 150.865 45.95 145.985 34.06C145.96 34.525 145.92 34.99 145.905 35.46C145.75 40.57 145.82 45.695 145.365 50.775C145.11 53.63 144.28 56.515 143.225 59.195C140.345 66.52 134.73 70.755 127.085 72.1C119.735 73.39 112.425 72.975 105.285 70.555C104.155 70.17 103.76 69.64 103.78 68.425C103.86 64.035 103.81 59.64 103.81 55.005L103.825 55ZM159.45 25.525C159.44 30.995 163.785 35.395 169.235 35.435C174.715 35.475 179.23 30.98 179.195 25.52C179.165 20.09 174.735 15.685 169.3 15.68C163.86 15.675 159.46 20.07 159.45 25.525V25.525ZM129.455 25.6C129.475 20.14 125.12 15.72 119.68 15.68C114.19 15.64 109.69 20.115 109.725 25.585C109.755 31.04 114.155 35.43 119.595 35.435C125.045 35.44 129.435 31.065 129.455 25.6V25.6Z" fill="white"/>
<path d="M14.43 47.2549V70.8449H0V0.129883H14.44V3.84488C15.16 3.53988 15.665 3.33488 16.16 3.11488C27.78 -2.00512 41.385 2.54988 47.54 13.5899C48.02 14.4549 48.08 15.1599 47.72 16.1199C45.37 22.4099 45.37 28.7399 47.73 35.0299C48.095 35.9949 47.995 36.7049 47.515 37.5549C41.395 48.4499 28.015 53.0299 16.515 48.1449C15.91 47.8899 15.305 47.6249 14.43 47.2499V47.2549ZM35.945 25.4849C35.905 20.0299 31.485 15.6549 26.05 15.6799C20.605 15.7049 16.22 20.1199 16.225 25.5599C16.23 31.0699 20.7 35.4949 26.2 35.4349C31.645 35.3749 35.99 30.9399 35.95 25.4849H35.945Z" fill="white"/>
<path d="M97.3504 25.59C97.3054 39.185 86.3504 50.115 72.7954 50.09C59.2504 50.065 48.2554 39.05 48.2754 25.52C48.2954 11.985 59.3204 1.00005 72.8654 1.02005C86.4354 1.04005 97.3954 12.04 97.3504 25.585V25.59ZM82.6854 25.515C82.6704 20.065 78.2654 15.67 72.8254 15.68C67.3904 15.69 62.9704 20.095 62.9504 25.53C62.9304 31.01 67.4204 35.475 72.9104 35.435C78.3554 35.395 82.7004 30.985 82.6854 25.515Z" fill="white"/>
<path d="M191.275 5.97004V1.25004H189.59V0.290039H194.105V1.25004H192.425V5.97004H191.28H191.275Z" fill="white"/>
<path d="M194.51 5.97004V0.290039H196.225L197.255 4.16504L198.275 0.290039H199.995V5.97004H198.93V1.49504L197.8 5.97004H196.695L195.57 1.49504V5.97004H194.505H194.51Z" fill="white"/>
</g>
<defs>
<clipPath id="clip0_3174_11513">
<rect width="200" height="72.815" fill="white"/>
</clipPath>
</defs>
</svg>
